<?xml version="1.0" standalone="no"?>
<!DOCTYPE svg PUBLIC "-//W3C//DTD SVG 20010904//EN"
 "http://www.w3.org/TR/2001/REC-SVG-20010904/DTD/svg10.dtd">
<svg version="1.0" xmlns="http://www.w3.org/2000/svg"
 width="487.000000pt" height="487.000000pt" viewBox="0 0 487.000000 487.000000"
 preserveAspectRatio="xMidYMid meet">
<metadata>
Created by potrace 1.14, written by Peter Selinger 2001-2017
</metadata>
<g transform="translate(0.000000,487.000000) scale(0.100000,-0.100000)"
fill="#000000" stroke="none">
<path d="M925 4854 c-92 -22 -184 -54 -250 -86 -289 -144 -515 -409 -614 -723
-61 -194 -59 -136 -60 -1605 0 -1444 -2 -1393 50 -1575 23 -82 26 -88 68 -180
36 -77 89 -168 118 -202 10 -12 25 -31 33 -44 26 -39 152 -162 219 -214 117
-89 280 -163 446 -201 11 -3 31 -8 45 -11 46 -12 2841 -13 2890 -2 25 6 59 12
75 15 57 7 171 48 265 96 267 135 446 337 581 653 19 45 55 188 67 263 10 64
9 2721 -1 2801 -4 34 -15 88 -23 120 -8 31 -17 63 -19 71 -17 78 -133 312
-180 365 -5 7 -19 24 -30 40 -29 41 -154 166 -200 200 -22 17 -42 33 -45 36
-13 16 -174 102 -243 129 -185 73 -56 68 -1677 68 -1231 0 -1464 -2 -1515 -14z"/>
</g>
</svg>
